<svg xmlns="http://www.w3.org/2000/svg" viewBox="0 0 512 512">
  <rect width="512" height="512" rx="112" fill="#173F37"/>
  <path
    fill="#0A2B25"
    fill-opacity=".34"
    d="M180 96h174c27 0 48 21 48 48v266l-28-18-28 18-28-18-28 18-28-18-28 18-28-18-28 18-28-18-28 18V144c0-27 21-48 48-48Z"
    transform="translate(8 10)"
  />
  <path
    fill="#FFF8EC"
    d="M170 88h174c27 0 48 21 48 48v266l-28-18-28 18-28-18-28 18-28-18-28 18-28-18-28 18-28-18-28 18V136c0-27 21-48 48-48Z"
  />
  <rect width="104" height="18" x="174" y="157" rx="9" fill="#173F37"/>
  <rect width="74" height="14" x="174" y="193" rx="7" fill="#8EA59C"/>
  <circle cx="329" cy="181" r="45" fill="#ED6A47"/>
  <path fill="none" stroke="#FFF8EC" stroke-linecap="round" stroke-linejoin="round" stroke-width="17" d="m307 181 15 15 29-33"/>
  <rect width="160" height="16" x="174" y="256" rx="8" fill="#B9C8C2"/>
  <rect width="121" height="16" x="174" y="296" rx="8" fill="#B9C8C2"/>
  <rect width="160" height="4" x="174" y="338" rx="2" fill="#D7DED9"/>
  <rect width="72" height="20" x="174" y="363" rx="10" fill="#E2AF45"/>
  <rect width="65" height="20" x="269" y="363" rx="10" fill="#173F37"/>
</svg>
